<svg width="75" height="109" viewBox="0 0 75 109" fill="none" xmlns="http://www.w3.org/2000/svg">
<path fill-rule="evenodd" clip-rule="evenodd" d="M1.06206 108.7C0.486124 108.7 0.0292265 108.215 0.0638584 107.64L2.93373 60L4.5 34V25.5C4.5 24.9477 4.94771 24.5 5.5 24.5H17.5C18.0523 24.5 18.5 24.9477 18.5 25.5V34H28.5C29.0523 34 29.5 33.5523 29.5 33V25.5C29.5 24.9477 29.9477 24.5 30.5 24.5H42.5C43.0523 24.5 43.5 24.9477 43.5 25.5V33C43.5 33.5523 43.9477 34 44.5 34H54V25.5C54 24.9477 54.4477 24.5 55 24.5H67C67.5523 24.5 68 24.9477 68 25.5V34L70.332 60L74.6023 107.611C74.6548 108.196 74.1938 108.7 73.6063 108.7H47V87.5V87H46.9883C46.7273 81.4332 42.1314 77 36.5 77C30.8686 77 26.2727 81.4332 26.0117 87H26V87.5V108.7H1.06206Z" fill="#FBB03B"/>
<path d="M35 1C35 0.447715 35.4477 0 36 0H51.382C52.1253 0 52.6088 0.782313 52.2764 1.44721L50.2236 5.55279C50.0828 5.83431 50.0828 6.16569 50.2236 6.44721L52.2764 10.5528C52.6088 11.2177 52.1253 12 51.382 12H36C35.4477 12 35 11.5523 35 11V1Z" fill="#FBB03B"/>
<line x1="36" x2="36" y2="25" stroke="#FBB03B" stroke-width="2"/>
</svg>
