<svg width="372" height="109" viewBox="0 0 372 109" fill="none" xmlns="http://www.w3.org/2000/svg">
<path d="M44.5703 34.7166C46.124 32.1273 49.8767 32.1273 51.4303 34.7166L92.3655 102.942C93.9652 105.608 92.0447 109 88.9355 109H7.06507C3.95589 109 2.03544 105.608 3.6351 102.942L44.5703 34.7166Z" fill="#82DBC5"/>
<rect x="153.7" y="34.3" width="74.7" height="74.7" rx="4" fill="#4F4F4F"/>
<path fill-rule="evenodd" clip-rule="evenodd" d="M298 108.7C297.424 108.7 296.967 108.215 297.002 107.64L299.872 60L301.438 34V25.5C301.438 24.9477 301.886 24.5 302.438 24.5H314.438C314.99 24.5 315.438 24.9477 315.438 25.5V34H325.438C325.99 34 326.438 33.5523 326.438 33V25.5C326.438 24.9477 326.886 24.5 327.438 24.5H339.438C339.99 24.5 340.438 24.9477 340.438 25.5V33C340.438 33.5523 340.886 34 341.438 34H350.938V25.5C350.938 24.9477 351.386 24.5 351.938 24.5H363.938C364.49 24.5 364.938 24.9477 364.938 25.5V34L367.27 60L371.54 107.611C371.593 108.196 371.132 108.7 370.544 108.7H343.938V87.5V87H343.926C343.665 81.4332 339.069 77 333.438 77C327.807 77 323.211 81.4332 322.95 87H322.938V87.5V108.7H298Z" fill="#FBB03B"/>
<path d="M331.938 1C331.938 0.447715 332.386 0 332.938 0H348.32C349.063 0 349.547 0.782313 349.214 1.44721L347.162 5.55279C347.021 5.83431 347.021 6.16569 347.162 6.44721L349.214 10.5528C349.547 11.2177 349.063 12 348.32 12H332.938C332.386 12 331.938 11.5523 331.938 11V1Z" fill="#FBB03B"/>
<line x1="332.938" x2="332.938" y2="25" stroke="#FBB03B" stroke-width="2"/>
</svg>
